<svg width="198" height="238" viewBox="0 0 198 238" fill="none" xmlns="http://www.w3.org/2000/svg">
<path d="M133.643 102.12L133.643 170.762L69.1758 132.451L53.0859 70.5384L69.1758 63.3609L133.643 102.12Z" fill="black"/>
<rect x="0.214914" y="0.377718" width="79.034" height="63.1809" rx="9.75" transform="matrix(0.859658 0.510871 -2.14032e-08 1 61.7357 67.5992)" fill="white"/>
<rect x="0.214914" y="0.377718" width="79.034" height="63.1809" rx="9.75" transform="matrix(0.859658 0.510871 -2.14032e-08 1 61.7357 67.5992)" stroke="black" stroke-width="0.5"/>
<rect x="0.214914" y="0.377718" width="79.034" height="63.1809" rx="9.75" transform="matrix(0.859658 0.510871 -2.14032e-08 1 61.7357 67.5992)" stroke="black" stroke-opacity="0.2" stroke-width="0.5"/>
<rect x="0.214914" y="0.377718" width="79.034" height="63.1809" rx="9.75" transform="matrix(0.859658 0.510871 -2.14032e-08 1 57.8668 69.8787)" fill="white"/>
<rect x="0.214914" y="0.377718" width="79.034" height="63.1809" rx="9.75" transform="matrix(0.859658 0.510871 -2.14032e-08 1 57.8668 69.8787)" stroke="black" stroke-width="0.5"/>
<rect x="0.214914" y="0.377718" width="79.034" height="63.1809" rx="9.75" transform="matrix(0.859658 0.510871 -2.14032e-08 1 57.8668 69.8787)" stroke="black" stroke-opacity="0.2" stroke-width="0.5"/>
<rect x="0.214914" y="0.377718" width="79.034" height="63.1809" rx="9.75" transform="matrix(0.859658 0.510871 -2.14032e-08 1 54.3983 72.2927)" fill="white"/>
<rect x="0.214914" y="0.377718" width="79.034" height="63.1809" rx="9.75" transform="matrix(0.859658 0.510871 -2.14032e-08 1 54.3983 72.2927)" stroke="black" stroke-width="0.5"/>
<rect x="0.214914" y="0.377718" width="79.034" height="63.1809" rx="9.75" transform="matrix(0.859658 0.510871 -2.14032e-08 1 54.3983 72.2927)" stroke="black" stroke-opacity="0.2" stroke-width="0.5"/>
<rect x="138.416" y="120.707" width="5.37958" height="7.42465" fill="white"/>
<path d="M48.4417 72.7904L112.479 113.86L112.479 182.867L56.9393 150.754C52.2653 148.052 48.4417 141.393 48.4417 135.955L48.4417 72.7904Z" fill="#B4F9BA"/>
<path d="M48.4417 72.7904L112.479 113.86L112.479 182.867L56.9393 150.754C52.2653 148.052 48.4417 141.393 48.4417 135.955L48.4417 72.7904Z" stroke="black" stroke-width="0.5"/>
<path d="M48.4417 72.7904L112.479 113.86L112.479 182.867L56.9393 150.754C52.2653 148.052 48.4417 141.393 48.4417 135.955L48.4417 72.7904Z" stroke="black" stroke-opacity="0.2" stroke-width="0.5"/>
<rect width="5.73328" height="67.2477" transform="matrix(0.859658 -0.510871 2.14032e-08 1 112.694 115.77)" fill="#414141"/>
<rect width="5.73328" height="67.2477" transform="matrix(0.859658 -0.510871 2.14032e-08 1 133.643 103.515)" fill="#414141"/>
<path d="M53.2715 66.26C49.6983 68.323 47.916 71.1778 48.1892 74.1457C48.4614 77.1038 50.805 79.914 54.5144 82.0556L112.713 115.749L117.693 112.841L59.4548 79.2168C56.9482 77.7696 55.6534 75.7833 55.4821 73.922C55.3118 72.0707 56.4201 70.4053 58.4357 69.2415C60.4513 68.0778 63.3359 67.4379 66.5425 67.5363C69.7663 67.6352 73.095 68.4337 75.6016 69.8809L133.669 103.496L138.642 100.586L80.5305 67.0352C76.8211 64.8936 72.0535 63.4829 66.93 63.3257C61.7893 63.168 56.8447 64.197 53.2715 66.26Z" fill="#66E070"/>
<path d="M142.562 141.543L123.673 152.448C116.859 156.382 108.451 156.329 101.687 152.31L92.2739 146.716L92.2739 133.428L104.639 140.724C109.688 143.703 115.95 143.732 121.026 140.799L146.548 126.052L146.436 134.929C146.402 137.662 144.93 140.176 142.562 141.543Z" fill="white" stroke="black" stroke-width="0.5"/>
<path d="M138.539 116.997C140.785 118.323 142.546 119.362 144.299 120.396C146.946 121.958 146.916 125.798 144.244 127.318L117.177 142.719C114.373 144.338 110.914 144.316 108.131 142.662L92.0239 133.09L95.0836 131.283C99.1415 133.677 101.544 135.104 103.946 136.53C105.301 137.334 106.656 138.139 108.308 139.117C111.089 140.764 114.542 140.777 117.339 139.157L142.264 124.76C142.926 124.377 142.928 123.421 142.269 123.031C138.587 120.853 138.587 120.853 138.587 120.853L138.539 116.997Z" fill="#66E070"/>
<circle cx="4.31459" cy="4.31459" r="4.31459" transform="matrix(0.866025 0.5 -2.20305e-08 1 94.5491 137.446)" fill="black"/>
<path d="M0.972412 57.6112L98.7407 114.315L197.435 57.6112" stroke="#0E0E0E" stroke-width="0.5" stroke-miterlimit="10"/>
<path opacity="0.17" d="M197.435 57.6134V180.136L98.5613 237.374L99.5249 114.515L197.435 57.6134Z" fill="#B4F9BA"/>
<path opacity="0.17" d="M99.5313 114.515L98.5677 237.374L0.979009 180.422L0.979004 57.6134L99.5313 114.515Z" fill="#B4F9BA"/>
<path d="M0.972173 180.422L0.972168 57.6066L98.8821 0.704834L197.434 57.6066V180.136L98.5608 237.367L0.972173 180.422Z" stroke="#0E0E0E" stroke-width="0.5" stroke-miterlimit="10"/>
<path d="M98.5679 237.369V114.315" stroke="#0E0E0E" stroke-width="0.5" stroke-miterlimit="10"/>
<path opacity="0.6" d="M197.432 57.605L99.5223 114.507L0.969971 57.605L98.8799 0.703247L197.432 57.605Z" fill="url(#paint0_linear_15722_200)"/>
<defs>
<linearGradient id="paint0_linear_15722_200" x1="99.2011" y1="0.703247" x2="99.2011" y2="114.507" gradientUnits="userSpaceOnUse">
<stop stop-color="#B4F9BA"/>
<stop offset="0.831478" stop-color="#B4F9BA" stop-opacity="0"/>
</linearGradient>
</defs>
</svg>
